<?xml version="1.0" encoding="utf-8"?>
<svg xmlns="http://www.w3.org/2000/svg" xmlns:xlink="http://www.w3.org/1999/xlink" style="margin: auto; background: rgb(241, 242, 243); display: block; shape-rendering: auto;" width="364px" height="364px" viewBox="0 0 100 100" preserveAspectRatio="xMidYMid">
<g transform="rotate(0 50 50)">
  <rect x="45" y="26" rx="5" ry="4" width="10" height="8" fill="#93dbe9">
    <animate attributeName="opacity" values="1;0" keyTimes="0;1" dur="1.8518518518518516s" begin="-1.8233618233618234s" repeatCount="indefinite"></animate>
  </rect>
</g><g transform="rotate(5.538461538461538 50 50)">
  <rect x="45" y="26" rx="5" ry="4" width="10" height="8" fill="#93dbe9">
    <animate attributeName="opacity" values="1;0" keyTimes="0;1" dur="1.8518518518518516s" begin="-1.7948717948717947s" repeatCount="indefinite"></animate>
  </rect>
</g><g transform="rotate(11.076923076923077 50 50)">
  <rect x="45" y="26" rx="5" ry="4" width="10" height="8" fill="#93dbe9">
    <animate attributeName="opacity" values="1;0" keyTimes="0;1" dur="1.8518518518518516s" begin="-1.7663817663817662s" repeatCount="indefinite"></animate>
  </rect>
</g><g transform="rotate(16.615384615384617 50 50)">
  <rect x="45" y="26" rx="5" ry="4" width="10" height="8" fill="#93dbe9">
    <animate attributeName="opacity" values="1;0" keyTimes="0;1" dur="1.8518518518518516s" begin="-1.7378917378917378s" repeatCount="indefinite"></animate>
  </rect>
</g><g transform="rotate(22.153846153846153 50 50)">
  <rect x="45" y="26" rx="5" ry="4" width="10" height="8" fill="#93dbe9">
    <animate attributeName="opacity" values="1;0" keyTimes="0;1" dur="1.8518518518518516s" begin="-1.7094017094017093s" repeatCount="indefinite"></animate>
  </rect>
</g><g transform="rotate(27.692307692307693 50 50)">
  <rect x="45" y="26" rx="5" ry="4" width="10" height="8" fill="#93dbe9">
    <animate attributeName="opacity" values="1;0" keyTimes="0;1" dur="1.8518518518518516s" begin="-1.6809116809116809s" repeatCount="indefinite"></animate>
  </rect>
</g><g transform="rotate(33.23076923076923 50 50)">
  <rect x="45" y="26" rx="5" ry="4" width="10" height="8" fill="#93dbe9">
    <animate attributeName="opacity" values="1;0" keyTimes="0;1" dur="1.8518518518518516s" begin="-1.6524216524216524s" repeatCount="indefinite"></animate>
  </rect>
</g><g transform="rotate(38.76923076923077 50 50)">
  <rect x="45" y="26" rx="5" ry="4" width="10" height="8" fill="#93dbe9">
    <animate attributeName="opacity" values="1;0" keyTimes="0;1" dur="1.8518518518518516s" begin="-1.623931623931624s" repeatCount="indefinite"></animate>
  </rect>
</g><g transform="rotate(44.30769230769231 50 50)">
  <rect x="45" y="26" rx="5" ry="4" width="10" height="8" fill="#93dbe9">
    <animate attributeName="opacity" values="1;0" keyTimes="0;1" dur="1.8518518518518516s" begin="-1.5954415954415955s" repeatCount="indefinite"></animate>
  </rect>
</g><g transform="rotate(49.84615384615385 50 50)">
  <rect x="45" y="26" rx="5" ry="4" width="10" height="8" fill="#93dbe9">
    <animate attributeName="opacity" values="1;0" keyTimes="0;1" dur="1.8518518518518516s" begin="-1.5669515669515668s" repeatCount="indefinite"></animate>
  </rect>
</g><g transform="rotate(55.38461538461539 50 50)">
  <rect x="45" y="26" rx="5" ry="4" width="10" height="8" fill="#93dbe9">
    <animate attributeName="opacity" values="1;0" keyTimes="0;1" dur="1.8518518518518516s" begin="-1.5384615384615383s" repeatCount="indefinite"></animate>
  </rect>
</g><g transform="rotate(60.92307692307692 50 50)">
  <rect x="45" y="26" rx="5" ry="4" width="10" height="8" fill="#93dbe9">
    <animate attributeName="opacity" values="1;0" keyTimes="0;1" dur="1.8518518518518516s" begin="-1.5099715099715099s" repeatCount="indefinite"></animate>
  </rect>
</g><g transform="rotate(66.46153846153847 50 50)">
  <rect x="45" y="26" rx="5" ry="4" width="10" height="8" fill="#93dbe9">
    <animate attributeName="opacity" values="1;0" keyTimes="0;1" dur="1.8518518518518516s" begin="-1.4814814814814814s" repeatCount="indefinite"></animate>
  </rect>
</g><g transform="rotate(72 50 50)">
  <rect x="45" y="26" rx="5" ry="4" width="10" height="8" fill="#93dbe9">
    <animate attributeName="opacity" values="1;0" keyTimes="0;1" dur="1.8518518518518516s" begin="-1.452991452991453s" repeatCount="indefinite"></animate>
  </rect>
</g><g transform="rotate(77.53846153846153 50 50)">
  <rect x="45" y="26" rx="5" ry="4" width="10" height="8" fill="#93dbe9">
    <animate attributeName="opacity" values="1;0" keyTimes="0;1" dur="1.8518518518518516s" begin="-1.4245014245014245s" repeatCount="indefinite"></animate>
  </rect>
</g><g transform="rotate(83.07692307692308 50 50)">
  <rect x="45" y="26" rx="5" ry="4" width="10" height="8" fill="#93dbe9">
    <animate attributeName="opacity" values="1;0" keyTimes="0;1" dur="1.8518518518518516s" begin="-1.396011396011396s" repeatCount="indefinite"></animate>
  </rect>
</g><g transform="rotate(88.61538461538461 50 50)">
  <rect x="45" y="26" rx="5" ry="4" width="10" height="8" fill="#93dbe9">
    <animate attributeName="opacity" values="1;0" keyTimes="0;1" dur="1.8518518518518516s" begin="-1.3675213675213675s" repeatCount="indefinite"></animate>
  </rect>
</g><g transform="rotate(94.15384615384616 50 50)">
  <rect x="45" y="26" rx="5" ry="4" width="10" height="8" fill="#93dbe9">
    <animate attributeName="opacity" values="1;0" keyTimes="0;1" dur="1.8518518518518516s" begin="-1.339031339031339s" repeatCount="indefinite"></animate>
  </rect>
</g><g transform="rotate(99.6923076923077 50 50)">
  <rect x="45" y="26" rx="5" ry="4" width="10" height="8" fill="#93dbe9">
    <animate attributeName="opacity" values="1;0" keyTimes="0;1" dur="1.8518518518518516s" begin="-1.3105413105413104s" repeatCount="indefinite"></animate>
  </rect>
</g><g transform="rotate(105.23076923076923 50 50)">
  <rect x="45" y="26" rx="5" ry="4" width="10" height="8" fill="#93dbe9">
    <animate attributeName="opacity" values="1;0" keyTimes="0;1" dur="1.8518518518518516s" begin="-1.282051282051282s" repeatCount="indefinite"></animate>
  </rect>
</g><g transform="rotate(110.76923076923077 50 50)">
  <rect x="45" y="26" rx="5" ry="4" width="10" height="8" fill="#93dbe9">
    <animate attributeName="opacity" values="1;0" keyTimes="0;1" dur="1.8518518518518516s" begin="-1.2535612535612535s" repeatCount="indefinite"></animate>
  </rect>
</g><g transform="rotate(116.3076923076923 50 50)">
  <rect x="45" y="26" rx="5" ry="4" width="10" height="8" fill="#93dbe9">
    <animate attributeName="opacity" values="1;0" keyTimes="0;1" dur="1.8518518518518516s" begin="-1.225071225071225s" repeatCount="indefinite"></animate>
  </rect>
</g><g transform="rotate(121.84615384615384 50 50)">
  <rect x="45" y="26" rx="5" ry="4" width="10" height="8" fill="#93dbe9">
    <animate attributeName="opacity" values="1;0" keyTimes="0;1" dur="1.8518518518518516s" begin="-1.1965811965811965s" repeatCount="indefinite"></animate>
  </rect>
</g><g transform="rotate(127.38461538461539 50 50)">
  <rect x="45" y="26" rx="5" ry="4" width="10" height="8" fill="#93dbe9">
    <animate attributeName="opacity" values="1;0" keyTimes="0;1" dur="1.8518518518518516s" begin="-1.168091168091168s" repeatCount="indefinite"></animate>
  </rect>
</g><g transform="rotate(132.92307692307693 50 50)">
  <rect x="45" y="26" rx="5" ry="4" width="10" height="8" fill="#93dbe9">
    <animate attributeName="opacity" values="1;0" keyTimes="0;1" dur="1.8518518518518516s" begin="-1.1396011396011396s" repeatCount="indefinite"></animate>
  </rect>
</g><g transform="rotate(138.46153846153845 50 50)">
  <rect x="45" y="26" rx="5" ry="4" width="10" height="8" fill="#93dbe9">
    <animate attributeName="opacity" values="1;0" keyTimes="0;1" dur="1.8518518518518516s" begin="-1.1111111111111112s" repeatCount="indefinite"></animate>
  </rect>
</g><g transform="rotate(144 50 50)">
  <rect x="45" y="26" rx="5" ry="4" width="10" height="8" fill="#93dbe9">
    <animate attributeName="opacity" values="1;0" keyTimes="0;1" dur="1.8518518518518516s" begin="-1.0826210826210825s" repeatCount="indefinite"></animate>
  </rect>
</g><g transform="rotate(149.53846153846155 50 50)">
  <rect x="45" y="26" rx="5" ry="4" width="10" height="8" fill="#93dbe9">
    <animate attributeName="opacity" values="1;0" keyTimes="0;1" dur="1.8518518518518516s" begin="-1.054131054131054s" repeatCount="indefinite"></animate>
  </rect>
</g><g transform="rotate(155.07692307692307 50 50)">
  <rect x="45" y="26" rx="5" ry="4" width="10" height="8" fill="#93dbe9">
    <animate attributeName="opacity" values="1;0" keyTimes="0;1" dur="1.8518518518518516s" begin="-1.0256410256410255s" repeatCount="indefinite"></animate>
  </rect>
</g><g transform="rotate(160.6153846153846 50 50)">
  <rect x="45" y="26" rx="5" ry="4" width="10" height="8" fill="#93dbe9">
    <animate attributeName="opacity" values="1;0" keyTimes="0;1" dur="1.8518518518518516s" begin="-0.9971509971509971s" repeatCount="indefinite"></animate>
  </rect>
</g><g transform="rotate(166.15384615384616 50 50)">
  <rect x="45" y="26" rx="5" ry="4" width="10" height="8" fill="#93dbe9">
    <animate attributeName="opacity" values="1;0" keyTimes="0;1" dur="1.8518518518518516s" begin="-0.9686609686609686s" repeatCount="indefinite"></animate>
  </rect>
</g><g transform="rotate(171.69230769230768 50 50)">
  <rect x="45" y="26" rx="5" ry="4" width="10" height="8" fill="#93dbe9">
    <animate attributeName="opacity" values="1;0" keyTimes="0;1" dur="1.8518518518518516s" begin="-0.9401709401709402s" repeatCount="indefinite"></animate>
  </rect>
</g><g transform="rotate(177.23076923076923 50 50)">
  <rect x="45" y="26" rx="5" ry="4" width="10" height="8" fill="#93dbe9">
    <animate attributeName="opacity" values="1;0" keyTimes="0;1" dur="1.8518518518518516s" begin="-0.9116809116809117s" repeatCount="indefinite"></animate>
  </rect>
</g><g transform="rotate(182.76923076923077 50 50)">
  <rect x="45" y="26" rx="5" ry="4" width="10" height="8" fill="#93dbe9">
    <animate attributeName="opacity" values="1;0" keyTimes="0;1" dur="1.8518518518518516s" begin="-0.8831908831908831s" repeatCount="indefinite"></animate>
  </rect>
</g><g transform="rotate(188.30769230769232 50 50)">
  <rect x="45" y="26" rx="5" ry="4" width="10" height="8" fill="#93dbe9">
    <animate attributeName="opacity" values="1;0" keyTimes="0;1" dur="1.8518518518518516s" begin="-0.8547008547008547s" repeatCount="indefinite"></animate>
  </rect>
</g><g transform="rotate(193.84615384615384 50 50)">
  <rect x="45" y="26" rx="5" ry="4" width="10" height="8" fill="#93dbe9">
    <animate attributeName="opacity" values="1;0" keyTimes="0;1" dur="1.8518518518518516s" begin="-0.8262108262108262s" repeatCount="indefinite"></animate>
  </rect>
</g><g transform="rotate(199.3846153846154 50 50)">
  <rect x="45" y="26" rx="5" ry="4" width="10" height="8" fill="#93dbe9">
    <animate attributeName="opacity" values="1;0" keyTimes="0;1" dur="1.8518518518518516s" begin="-0.7977207977207977s" repeatCount="indefinite"></animate>
  </rect>
</g><g transform="rotate(204.92307692307693 50 50)">
  <rect x="45" y="26" rx="5" ry="4" width="10" height="8" fill="#93dbe9">
    <animate attributeName="opacity" values="1;0" keyTimes="0;1" dur="1.8518518518518516s" begin="-0.7692307692307692s" repeatCount="indefinite"></animate>
  </rect>
</g><g transform="rotate(210.46153846153845 50 50)">
  <rect x="45" y="26" rx="5" ry="4" width="10" height="8" fill="#93dbe9">
    <animate attributeName="opacity" values="1;0" keyTimes="0;1" dur="1.8518518518518516s" begin="-0.7407407407407407s" repeatCount="indefinite"></animate>
  </rect>
</g><g transform="rotate(216 50 50)">
  <rect x="45" y="26" rx="5" ry="4" width="10" height="8" fill="#93dbe9">
    <animate attributeName="opacity" values="1;0" keyTimes="0;1" dur="1.8518518518518516s" begin="-0.7122507122507122s" repeatCount="indefinite"></animate>
  </rect>
</g><g transform="rotate(221.53846153846155 50 50)">
  <rect x="45" y="26" rx="5" ry="4" width="10" height="8" fill="#93dbe9">
    <animate attributeName="opacity" values="1;0" keyTimes="0;1" dur="1.8518518518518516s" begin="-0.6837606837606838s" repeatCount="indefinite"></animate>
  </rect>
</g><g transform="rotate(227.07692307692307 50 50)">
  <rect x="45" y="26" rx="5" ry="4" width="10" height="8" fill="#93dbe9">
    <animate attributeName="opacity" values="1;0" keyTimes="0;1" dur="1.8518518518518516s" begin="-0.6552706552706552s" repeatCount="indefinite"></animate>
  </rect>
</g><g transform="rotate(232.6153846153846 50 50)">
  <rect x="45" y="26" rx="5" ry="4" width="10" height="8" fill="#93dbe9">
    <animate attributeName="opacity" values="1;0" keyTimes="0;1" dur="1.8518518518518516s" begin="-0.6267806267806267s" repeatCount="indefinite"></animate>
  </rect>
</g><g transform="rotate(238.15384615384616 50 50)">
  <rect x="45" y="26" rx="5" ry="4" width="10" height="8" fill="#93dbe9">
    <animate attributeName="opacity" values="1;0" keyTimes="0;1" dur="1.8518518518518516s" begin="-0.5982905982905983s" repeatCount="indefinite"></animate>
  </rect>
</g><g transform="rotate(243.69230769230768 50 50)">
  <rect x="45" y="26" rx="5" ry="4" width="10" height="8" fill="#93dbe9">
    <animate attributeName="opacity" values="1;0" keyTimes="0;1" dur="1.8518518518518516s" begin="-0.5698005698005698s" repeatCount="indefinite"></animate>
  </rect>
</g><g transform="rotate(249.23076923076923 50 50)">
  <rect x="45" y="26" rx="5" ry="4" width="10" height="8" fill="#93dbe9">
    <animate attributeName="opacity" values="1;0" keyTimes="0;1" dur="1.8518518518518516s" begin="-0.5413105413105412s" repeatCount="indefinite"></animate>
  </rect>
</g><g transform="rotate(254.76923076923077 50 50)">
  <rect x="45" y="26" rx="5" ry="4" width="10" height="8" fill="#93dbe9">
    <animate attributeName="opacity" values="1;0" keyTimes="0;1" dur="1.8518518518518516s" begin="-0.5128205128205128s" repeatCount="indefinite"></animate>
  </rect>
</g><g transform="rotate(260.3076923076923 50 50)">
  <rect x="45" y="26" rx="5" ry="4" width="10" height="8" fill="#93dbe9">
    <animate attributeName="opacity" values="1;0" keyTimes="0;1" dur="1.8518518518518516s" begin="-0.4843304843304843s" repeatCount="indefinite"></animate>
  </rect>
</g><g transform="rotate(265.84615384615387 50 50)">
  <rect x="45" y="26" rx="5" ry="4" width="10" height="8" fill="#93dbe9">
    <animate attributeName="opacity" values="1;0" keyTimes="0;1" dur="1.8518518518518516s" begin="-0.45584045584045585s" repeatCount="indefinite"></animate>
  </rect>
</g><g transform="rotate(271.38461538461536 50 50)">
  <rect x="45" y="26" rx="5" ry="4" width="10" height="8" fill="#93dbe9">
    <animate attributeName="opacity" values="1;0" keyTimes="0;1" dur="1.8518518518518516s" begin="-0.42735042735042733s" repeatCount="indefinite"></animate>
  </rect>
</g><g transform="rotate(276.9230769230769 50 50)">
  <rect x="45" y="26" rx="5" ry="4" width="10" height="8" fill="#93dbe9">
    <animate attributeName="opacity" values="1;0" keyTimes="0;1" dur="1.8518518518518516s" begin="-0.39886039886039887s" repeatCount="indefinite"></animate>
  </rect>
</g><g transform="rotate(282.46153846153845 50 50)">
  <rect x="45" y="26" rx="5" ry="4" width="10" height="8" fill="#93dbe9">
    <animate attributeName="opacity" values="1;0" keyTimes="0;1" dur="1.8518518518518516s" begin="-0.37037037037037035s" repeatCount="indefinite"></animate>
  </rect>
</g><g transform="rotate(288 50 50)">
  <rect x="45" y="26" rx="5" ry="4" width="10" height="8" fill="#93dbe9">
    <animate attributeName="opacity" values="1;0" keyTimes="0;1" dur="1.8518518518518516s" begin="-0.3418803418803419s" repeatCount="indefinite"></animate>
  </rect>
</g><g transform="rotate(293.53846153846155 50 50)">
  <rect x="45" y="26" rx="5" ry="4" width="10" height="8" fill="#93dbe9">
    <animate attributeName="opacity" values="1;0" keyTimes="0;1" dur="1.8518518518518516s" begin="-0.31339031339031337s" repeatCount="indefinite"></animate>
  </rect>
</g><g transform="rotate(299.0769230769231 50 50)">
  <rect x="45" y="26" rx="5" ry="4" width="10" height="8" fill="#93dbe9">
    <animate attributeName="opacity" values="1;0" keyTimes="0;1" dur="1.8518518518518516s" begin="-0.2849002849002849s" repeatCount="indefinite"></animate>
  </rect>
</g><g transform="rotate(304.61538461538464 50 50)">
  <rect x="45" y="26" rx="5" ry="4" width="10" height="8" fill="#93dbe9">
    <animate attributeName="opacity" values="1;0" keyTimes="0;1" dur="1.8518518518518516s" begin="-0.2564102564102564s" repeatCount="indefinite"></animate>
  </rect>
</g><g transform="rotate(310.15384615384613 50 50)">
  <rect x="45" y="26" rx="5" ry="4" width="10" height="8" fill="#93dbe9">
    <animate attributeName="opacity" values="1;0" keyTimes="0;1" dur="1.8518518518518516s" begin="-0.22792022792022792s" repeatCount="indefinite"></animate>
  </rect>
</g><g transform="rotate(315.6923076923077 50 50)">
  <rect x="45" y="26" rx="5" ry="4" width="10" height="8" fill="#93dbe9">
    <animate attributeName="opacity" values="1;0" keyTimes="0;1" dur="1.8518518518518516s" begin="-0.19943019943019943s" repeatCount="indefinite"></animate>
  </rect>
</g><g transform="rotate(321.2307692307692 50 50)">
  <rect x="45" y="26" rx="5" ry="4" width="10" height="8" fill="#93dbe9">
    <animate attributeName="opacity" values="1;0" keyTimes="0;1" dur="1.8518518518518516s" begin="-0.17094017094017094s" repeatCount="indefinite"></animate>
  </rect>
</g><g transform="rotate(326.7692307692308 50 50)">
  <rect x="45" y="26" rx="5" ry="4" width="10" height="8" fill="#93dbe9">
    <animate attributeName="opacity" values="1;0" keyTimes="0;1" dur="1.8518518518518516s" begin="-0.14245014245014245s" repeatCount="indefinite"></animate>
  </rect>
</g><g transform="rotate(332.3076923076923 50 50)">
  <rect x="45" y="26" rx="5" ry="4" width="10" height="8" fill="#93dbe9">
    <animate attributeName="opacity" values="1;0" keyTimes="0;1" dur="1.8518518518518516s" begin="-0.11396011396011396s" repeatCount="indefinite"></animate>
  </rect>
</g><g transform="rotate(337.84615384615387 50 50)">
  <rect x="45" y="26" rx="5" ry="4" width="10" height="8" fill="#93dbe9">
    <animate attributeName="opacity" values="1;0" keyTimes="0;1" dur="1.8518518518518516s" begin="-0.08547008547008547s" repeatCount="indefinite"></animate>
  </rect>
</g><g transform="rotate(343.38461538461536 50 50)">
  <rect x="45" y="26" rx="5" ry="4" width="10" height="8" fill="#93dbe9">
    <animate attributeName="opacity" values="1;0" keyTimes="0;1" dur="1.8518518518518516s" begin="-0.05698005698005698s" repeatCount="indefinite"></animate>
  </rect>
</g><g transform="rotate(348.9230769230769 50 50)">
  <rect x="45" y="26" rx="5" ry="4" width="10" height="8" fill="#93dbe9">
    <animate attributeName="opacity" values="1;0" keyTimes="0;1" dur="1.8518518518518516s" begin="-0.02849002849002849s" repeatCount="indefinite"></animate>
  </rect>
</g><g transform="rotate(354.46153846153845 50 50)">
  <rect x="45" y="26" rx="5" ry="4" width="10" height="8" fill="#93dbe9">
    <animate attributeName="opacity" values="1;0" keyTimes="0;1" dur="1.8518518518518516s" begin="0s" repeatCount="indefinite"></animate>
  </rect>
</g>
<!-- [ldio] generated by https://loading.io/ --></svg>